<svg width="15" height="16" viewBox="0 0 15 16" fill="none" xmlns="http://www.w3.org/2000/svg">
<path d="M14.0036 1.20477e-06H0.630301C0.394432 -0.0004747 0.178194 0.140075 0.070372 0.363908C-0.0389369 0.590755 -0.019752 0.863923 0.119896 1.0711L5.01931 8.43299C5.02095 8.43553 5.02273 8.43791 5.02437 8.44045C5.20238 8.6968 5.29861 9.00725 5.2992 9.32642V15.3285C5.29816 15.5063 5.3636 15.677 5.48108 15.8031C5.59857 15.9292 5.7583 16 5.92486 16C6.00963 16 6.09336 15.9819 6.17159 15.9473L8.92468 14.8275C9.17141 14.7473 9.33515 14.499 9.33515 14.2V9.32642C9.3356 9.00741 9.43197 8.6968 9.60984 8.44045C9.61147 8.43791 9.61325 8.43553 9.61489 8.43299L14.5142 1.07078C14.6538 0.863764 14.673 0.590755 14.5637 0.363908C14.4559 0.140075 14.2396 -0.0004747 14.0036 1.20477e-06ZM8.99592 7.95931C8.72228 8.35542 8.5743 8.83434 8.57341 9.32642V14.1013L6.06064 15.1232V9.32642C6.05975 8.83434 5.91178 8.35542 5.63798 7.95931L0.881488 0.812208H13.7526L8.99592 7.95931Z" fill="#1B0505"/>
</svg>
