<svg xmlns="http://www.w3.org/2000/svg" width="76" height="18" fill="none" viewBox="0 0 76 18">
    <path fill={props.color} fill-rule="evenodd" d="M67.203 3.174V7.55h7.314v2.9h-7.314v4.375H76v2.925H64.263V.248H76v2.925h-8.797zM51.027 12.9h2.94c.05 1.45 1.258 2.175 2.565 2.175 1.357 0 2.563-.85 2.563-2.225 0-1.476-1.383-2.4-2.563-2.45-.152 0-1.358 0-2.639-.575-1.836-.85-2.866-2.4-2.866-4.476C51.027 2.025 53.692 0 56.532 0c3.041 0 5.378 2.05 5.429 5.025h-2.917c-.05-1.45-1.181-2.1-2.513-2.1-1.382 0-2.564.799-2.564 2.424 0 1.45 1.257 2.225 2.564 2.225.125 0 1.357 0 2.614.575 1.86.85 2.865 2.626 2.865 4.7C62.01 16.2 59.37 18 56.53 18c-3.041-.075-5.454-1.826-5.505-5.1h.001zm-5.31 4.85l-4.574-7.3h-1.685v7.3h-2.94V7.55h2.788l-2.789-4.376V.249h5.857s5.881 0 5.881 5.1c0 3.1-2.162 4.325-3.871 4.8l4.776 7.6h-3.443zM42.752 7.524l-2.741-4.35h2.363s2.941 0 2.941 2.175c0 1.725-1.785 2.1-2.563 2.175zm-17.148 10.45c-11.612 0-11.587-17.95 0-17.95 11.536 0 11.562 17.95 0 17.95zm0-15.1c-7.59 0-7.616 12.276 0 12.276s7.616-12.276 0-12.276zM14.653 17.75h-2.964L2.94 5.3v12.45H0V.248h2.966l8.771 12.45V.249h2.916v17.5z" clip-rule="evenodd"/>
</svg>