<svg width="15" height="15" viewBox="0 0 15 15" fill="none" xmlns="http://www.w3.org/2000/svg">
<path d="M14.3642 14.5205L10.1561 10.1442C11.2295 9.0678 11.8944 7.58383 11.8944 5.94721C11.8944 2.66775 9.22667 0 5.94721 0C2.66775 0 0 2.66775 0 5.94721C0 9.22667 2.66775 11.8944 5.94721 11.8944C7.38672 11.8944 8.70785 11.3798 9.73757 10.526L13.9558 14.9131C14.0113 14.9711 14.0855 15 14.16 15C14.2308 15 14.3013 14.9737 14.3563 14.921C14.469 14.8125 14.4724 14.6333 14.3642 14.5205ZM5.94721 11.328C2.98012 11.328 0.566401 8.9143 0.566401 5.94721C0.566401 2.98012 2.98012 0.566401 5.94721 0.566401C8.9143 0.566401 11.328 2.98012 11.328 5.94721C11.328 8.9143 8.91402 11.328 5.94721 11.328Z" fill="black"/>
</svg>
